<svg width="30" height="31" viewBox="0 0 30 31" fill="none" xmlns="http://www.w3.org/2000/svg">
<g clip-path="url(#clip0_213_162)">
<rect width="30" height="30" transform="translate(0 0.5)" fill="white"/>
<path d="M25.0625 14.25H4.9375C4.28166 14.25 3.75 14.7817 3.75 15.4375V15.5625C3.75 16.2183 4.28166 16.75 4.9375 16.75H25.0625C25.7183 16.75 26.25 16.2183 26.25 15.5625V15.4375C26.25 14.7817 25.7183 14.25 25.0625 14.25Z" fill="#1C1B1A"/>
<path d="M25.0625 20.5H4.9375C4.28166 20.5 3.75 21.0317 3.75 21.6875V21.8125C3.75 22.4683 4.28166 23 4.9375 23H25.0625C25.7183 23 26.25 22.4683 26.25 21.8125V21.6875C26.25 21.0317 25.7183 20.5 25.0625 20.5Z" fill="#1C1B1A"/>
<path d="M25.0625 8H4.9375C4.28166 8 3.75 8.53166 3.75 9.1875V9.3125C3.75 9.96834 4.28166 10.5 4.9375 10.5H25.0625C25.7183 10.5 26.25 9.96834 26.25 9.3125V9.1875C26.25 8.53166 25.7183 8 25.0625 8Z" fill="#1C1B1A"/>
</g>
<defs>
<clipPath id="clip0_213_162">
<rect width="30" height="30" fill="white" transform="translate(0 0.5)"/>
</clipPath>
</defs>
</svg>
