<svg width="30" height="30" viewBox="0 0 30 30" fill="none" xmlns="http://www.w3.org/2000/svg">
<path d="M8.38397 6.61652C8.14822 6.38882 7.83247 6.26282 7.50472 6.26567C7.17698 6.26852 6.86346 6.39998 6.6317 6.63174C6.39994 6.8635 6.26848 7.17702 6.26563 7.50476C6.26278 7.83251 6.38878 8.14826 6.61647 8.38401L13.2327 15.0003L6.61647 21.6165C6.49709 21.7318 6.40186 21.8698 6.33635 22.0223C6.27084 22.1748 6.23635 22.3388 6.23491 22.5048C6.23347 22.6707 6.2651 22.8353 6.32795 22.989C6.3908 23.1426 6.48361 23.2821 6.60098 23.3995C6.71835 23.5169 6.85791 23.6097 7.01153 23.6725C7.16515 23.7354 7.32975 23.767 7.49573 23.7656C7.6617 23.7641 7.82572 23.7297 7.97823 23.6641C8.13073 23.5986 8.26866 23.5034 8.38397 23.384L15.0002 16.7678L21.6165 23.384C21.8522 23.6117 22.168 23.7377 22.4957 23.7349C22.8235 23.732 23.137 23.6005 23.3687 23.3688C23.6005 23.137 23.732 22.8235 23.7348 22.4958C23.7377 22.168 23.6117 21.8523 23.384 21.6165L16.7677 15.0003L23.384 8.38401C23.6117 8.14826 23.7377 7.83251 23.7348 7.50476C23.732 7.17702 23.6005 6.8635 23.3687 6.63174C23.137 6.39998 22.8235 6.26852 22.4957 6.26567C22.168 6.26282 21.8522 6.38882 21.6165 6.61652L15.0002 13.2328L8.38397 6.61652Z" fill="#17171B"/>
</svg>
